# xmcd CD database file
#
# Track frame offsets:
#	150
#	14384
#	25909
#	41371
#	56223
#	106675
#	126479
#	144559
#	172988
#	207528
#	231190
#	254364
#	281451
#	302261
#
# Disc length: 4456 seconds
#
# Revision: 0
# Processed by: cddbd v1.5.2PL0 Copyright (c) Steve Scherf et al.
# Submitted via: CDex 1.70beta2
#
DISCID=bf11660e
DTITLE=PETTIFORD, OSCAR - First Bass
DYEAR=1960
DGENRE=Jazz
TTITLE0=Words (Too Marvelous for Words)
TTITLE1=Monti Cello
TTITLE2=In a Cello Mood
TTITLE3=Blues in the Closet
TTITLE4=Over the Rainbow
TTITLE5=Take the "A" Train
TTITLE6=Willow Weep for Me
TTITLE7=Yardbird Suite Walk
TTITLE8=Bohemia After Dark
TTITLE9=Laverne Walk
TTITLE10=Stardust
TTITLE11=All the things You Are
TTITLE12=Interview/The Nearness of You
TTITLE13=Why Not, That's What
EXTD=YEAR: 1960
EXTT0=
EXTT1=
EXTT2=
EXTT3=
EXTT4=
EXTT5=
EXTT6=
EXTT7=
EXTT8=
EXTT9=
EXTT10=
EXTT11=
EXTT12=
EXTT13=
PLAYORDER=
